<?xml version="1.0" encoding="utf-8"?><svg xmlns="http://www.w3.org/2000/svg" xmlns:xlink="http://www.w3.org/1999/xlink"><symbol viewBox="0 0 14 9" id="arrow-down" xmlns="http://www.w3.org/2000/svg"><path d="M13 1L7 7 1 1"/></symbol><symbol viewBox="0 0 10 6" id="arrow-down-thin" xmlns="http://www.w3.org/2000/svg"><path d="M1 1l4 4 4-4"/></symbol><symbol viewBox="0 0 9 14" id="arrow-right" xmlns="http://www.w3.org/2000/svg"><path d="M1 1l6 6-6 6"/></symbol><symbol viewBox="0 0 54 54" id="chart" xmlns="http://www.w3.org/2000/svg"><path d="M5 31h4v11H5zm8-13h4v24h-4zm16-9h4v33h-4zm8 4h4v29h-4zm8 8h4v21h-4zm-24 0h4v21h-4z"/></symbol><symbol viewBox="0 0 54 54" id="chart-orange" xmlns="http://www.w3.org/2000/svg"><path d="M5 31h4v11H5zm8-13h4v24h-4zm16-9h4v33h-4zm8 4h4v29h-4zm8 8h4v21h-4zm-24 0h4v21h-4z"/></symbol><symbol viewBox="0 0 24 24" id="clock" xmlns="http://www.w3.org/2000/svg"><path d="M1 12h21m-8-8l8 8-8 8"/></symbol><symbol viewBox="0 0 24 24" id="close" xmlns="http://www.w3.org/2000/svg"><path d="M4 4l16 16M4 20L20 4"/></symbol><symbol viewBox="0 0 35 44" id="file-doc" xmlns="http://www.w3.org/2000/svg"><path d="M20 0H3C1 0 0 1 0 3v38c0 2 1 3 3 3h29c2 0 3-1 3-3V15c0-2-1-3-2-4l-9-9c-1-1-2-2-4-2z"/><path d="M7.2 28.16c.156-.023.331-.041.526-.056a16.273 16.273 0 011.22-.045c.202-.008.381-.011.538-.011.694 0 1.288.097 1.78.29a3.03 3.03 0 011.2.819c.305.35.53.769.671 1.254.142.485.213 1.02.213 1.602a5.78 5.78 0 01-.202 1.534c-.134.493-.358.93-.672 1.31-.313.381-.728.687-1.243.919-.508.231-1.138.347-1.893.347a19.905 19.905 0 01-1.098-.045c-.208-.007-.41-.019-.604-.034a4.146 4.146 0 01-.437-.033V28.16zm2.407 1.254c-.164 0-.332.004-.504.011a3.02 3.02 0 00-.37.034v5.253c.03.007.079.015.146.022.075 0 .153.004.235.011.083 0 .16.004.236.012h.168c.433 0 .791-.075 1.075-.224.291-.157.519-.363.683-.617.172-.253.291-.544.358-.873.068-.336.101-.68.101-1.03 0-.307-.03-.613-.09-.919a2.257 2.257 0 00-.335-.84 1.813 1.813 0 00-.65-.605c-.276-.157-.627-.235-1.053-.235zm5.269 2.666c0-1.307.288-2.311.863-3.013.575-.71 1.396-1.064 2.464-1.064.56 0 1.049.097 1.467.291.418.194.765.47 1.042.829.276.358.481.788.616 1.288.134.5.201 1.056.201 1.669 0 1.306-.291 2.314-.873 3.024-.575.702-1.393 1.053-2.453 1.053-.568 0-1.06-.097-1.479-.292a2.763 2.763 0 01-1.041-.829 3.738 3.738 0 01-.605-1.288 6.429 6.429 0 01-.202-1.668zm1.613 0c0 .395.034.761.101 1.097.067.329.168.613.302.852.142.238.321.425.538.56.216.134.474.201.773.201.545 0 .967-.213 1.265-.638.299-.426.448-1.117.448-2.072a5.32 5.32 0 00-.1-1.064 2.861 2.861 0 00-.292-.863 1.5 1.5 0 00-.526-.57c-.217-.143-.482-.214-.795-.214-.545 0-.967.22-1.266.661-.299.433-.448 1.116-.448 2.05zm12.118 3.595c-.24.172-.545.295-.919.37a5.64 5.64 0 01-1.13.111c-.471 0-.92-.07-1.345-.212a2.96 2.96 0 01-1.109-.706c-.32-.328-.578-.75-.773-1.266-.186-.522-.28-1.153-.28-1.892 0-.77.105-1.411.314-1.927.217-.522.493-.94.829-1.254a3.013 3.013 0 011.142-.683 3.885 3.885 0 011.255-.213c.448 0 .825.03 1.13.09.314.06.572.13.774.212l-.303 1.3a2.227 2.227 0 00-.616-.18 5.467 5.467 0 00-.85-.056c-.62 0-1.12.22-1.502.661-.373.44-.56 1.124-.56 2.05 0 .403.045.773.135 1.108.09.33.224.613.403.852.187.231.414.414.683.549.276.127.594.19.952.19.336 0 .62-.034.851-.1a2.51 2.51 0 00.605-.259l.314 1.255zM21 3v9c0 1.5.5 2 2 2h9L21 3z"/></symbol><symbol viewBox="0 0 35 44" id="file-doc-orange" xmlns="http://www.w3.org/2000/svg"><path d="M20 0H3C1 0 0 1 0 3v38c0 2 1 3 3 3h29c2 0 3-1 3-3V15c0-2-1-3-2-4l-9-9c-1-1-2-2-4-2z"/><path d="M7.2 28.16a8.17 8.17 0 01.526-.056 16.274 16.274 0 011.221-.045c.202-.007.381-.011.538-.011.694 0 1.288.097 1.78.291a3.03 3.03 0 011.199.818c.306.35.53.769.672 1.254.142.485.213 1.02.213 1.602a5.78 5.78 0 01-.202 1.534c-.134.493-.358.93-.672 1.31-.313.381-.728.687-1.243.919-.508.231-1.139.347-1.893.347a20.552 20.552 0 01-1.098-.045c-.208-.007-.41-.018-.604-.033a4.202 4.202 0 01-.437-.034V28.16zm2.408 1.254c-.164 0-.332.004-.504.011a3.02 3.02 0 00-.37.034v5.253c.03.007.079.015.146.022.075 0 .153.004.235.011.082 0 .16.004.235.012h.168c.433 0 .792-.075 1.076-.224.29-.157.519-.362.683-.616a2.4 2.4 0 00.358-.874 5.26 5.26 0 00.101-1.03c0-.306-.03-.613-.09-.919a2.257 2.257 0 00-.336-.84 1.813 1.813 0 00-.65-.605c-.276-.156-.626-.235-1.052-.235zm5.269 2.666c0-1.307.288-2.311.863-3.013.574-.71 1.396-1.064 2.464-1.064.56 0 1.049.097 1.467.291.418.194.765.47 1.041.83.277.358.482.787.616 1.287.135.5.202 1.057.202 1.669 0 1.307-.291 2.315-.874 3.024-.575.702-1.392 1.053-2.452 1.053-.568 0-1.06-.097-1.479-.291a2.763 2.763 0 01-1.041-.83 3.738 3.738 0 01-.605-1.287 6.43 6.43 0 01-.202-1.67zm1.613 0c0 .396.034.762.1 1.098.068.328.169.612.303.85a1.6 1.6 0 00.538.56c.216.135.474.202.773.202.545 0 .966-.212 1.265-.638.299-.426.448-1.116.448-2.072 0-.38-.033-.736-.1-1.064a2.861 2.861 0 00-.292-.862 1.5 1.5 0 00-.526-.572c-.217-.142-.482-.213-.795-.213-.546 0-.967.22-1.266.661-.299.433-.448 1.117-.448 2.05zm12.118 3.595c-.24.172-.546.295-.919.37a5.64 5.64 0 01-1.131.112c-.47 0-.918-.071-1.344-.213a2.96 2.96 0 01-1.109-.706c-.321-.328-.579-.75-.773-1.265-.186-.523-.28-1.154-.28-1.893 0-.77.105-1.411.314-1.926.216-.523.493-.941.829-1.255a3.011 3.011 0 011.142-.683 3.883 3.883 0 011.255-.213c.448 0 .825.03 1.13.09.314.06.572.13.773.212l-.302 1.3a2.224 2.224 0 00-.616-.18 5.467 5.467 0 00-.851-.056c-.62 0-1.12.22-1.5.661-.374.44-.56 1.124-.56 2.05 0 .403.044.773.133 1.109.09.328.224.612.404.85.186.232.414.415.683.55.276.127.594.19.952.19.336 0 .62-.034.851-.1a2.5 2.5 0 00.605-.258l.314 1.254zM21 3v9c0 1.5.5 2 2 2h9L21 3z"/></symbol><symbol viewBox="0 0 35 44" id="file-pdf" xmlns="http://www.w3.org/2000/svg"><path d="M20 0H3C1 0 0 1 0 3v38c0 2 1 3 3 3h29c2 0 3-1 3-3V15c0-2-1-3-2-4l-9-9c-1-1-2-2-4-2z"/><path d="M21 3v9c0 1.5.5 2 2 2h9L21 3zM8 28.238c.314-.06.657-.104 1.03-.134.381-.037.758-.056 1.132-.056.388 0 .776.034 1.164.1.396.06.75.187 1.064.381.314.187.568.452.762.796.202.336.302.776.302 1.321 0 .493-.086.911-.257 1.255-.172.336-.4.612-.683.829a2.75 2.75 0 01-.975.47 4.268 4.268 0 01-1.12.145h-.437l-.268-.022a1.925 1.925 0 01-.18-.022V36H8v-7.762zm2.285 1.131c-.15 0-.291.008-.426.023a2.711 2.711 0 00-.325.034v2.542c.03.007.075.015.135.022l.19.023h.336c.202 0 .4-.019.594-.056.201-.038.38-.105.537-.202a1.08 1.08 0 00.37-.425c.097-.18.146-.415.146-.706 0-.246-.045-.448-.135-.605a1.068 1.068 0 00-.358-.392 1.32 1.32 0 00-.493-.201 2.9 2.9 0 00-.571-.056zm4.796-1.209c.157-.023.333-.041.527-.056a15.864 15.864 0 011.22-.045c.202-.007.381-.011.538-.011.695 0 1.288.097 1.781.291.493.194.892.467 1.198.818.306.35.53.769.672 1.254.142.485.213 1.02.213 1.602a5.82 5.82 0 01-.201 1.534 3.48 3.48 0 01-.672 1.31c-.314.381-.728.687-1.244.919-.507.231-1.138.347-1.892.347a20.532 20.532 0 01-1.098-.045c-.21-.007-.41-.018-.605-.033a4.199 4.199 0 01-.437-.034V28.16zm2.408 1.254c-.164 0-.332.004-.504.011a2.98 2.98 0 00-.37.034v5.253c.03.007.08.015.146.022.075 0 .153.004.236.011.082 0 .16.004.235.012h.168c.433 0 .791-.075 1.075-.224.291-.157.519-.363.683-.616a2.4 2.4 0 00.359-.874c.067-.336.1-.68.1-1.03 0-.306-.03-.613-.09-.919a2.26 2.26 0 00-.335-.84 1.814 1.814 0 00-.65-.605c-.276-.156-.627-.235-1.053-.235zm5.516-1.254h4.648v1.366h-3.114v1.938h2.867v1.366H24.54V36h-1.534v-7.84z"/></symbol><symbol viewBox="0 0 35 44" id="file-pdf-orange" xmlns="http://www.w3.org/2000/svg"><path d="M20 0H3C1 0 0 1 0 3v38c0 2 1 3 3 3h29c2 0 3-1 3-3V15c0-2-1-3-2-4l-9-9c-1-1-2-2-4-2z"/><path d="M21 3v9c0 1.5.5 2 2 2h9L21 3zM8 28.238c.314-.06.657-.104 1.03-.134.381-.037.758-.056 1.132-.056.388 0 .776.034 1.164.1.396.06.75.187 1.064.381.314.187.568.452.762.796.202.336.302.776.302 1.321 0 .493-.086.911-.257 1.255-.172.336-.4.612-.683.829a2.75 2.75 0 01-.975.47 4.268 4.268 0 01-1.12.145h-.437l-.268-.022a1.925 1.925 0 01-.18-.022V36H8v-7.762zm2.285 1.131c-.15 0-.291.008-.426.023a2.711 2.711 0 00-.325.034v2.542c.03.007.075.015.135.022l.19.023h.336c.202 0 .4-.019.594-.056.201-.038.38-.105.537-.202a1.08 1.08 0 00.37-.425c.097-.18.146-.415.146-.706 0-.246-.045-.448-.135-.605a1.068 1.068 0 00-.358-.392 1.32 1.32 0 00-.493-.201 2.9 2.9 0 00-.571-.056zm4.796-1.209c.157-.023.333-.041.527-.056a15.864 15.864 0 011.22-.045c.202-.007.381-.011.538-.011.695 0 1.288.097 1.781.291.493.194.892.467 1.198.818.306.35.53.769.672 1.254.142.485.213 1.02.213 1.602a5.82 5.82 0 01-.201 1.534 3.48 3.48 0 01-.672 1.31c-.314.381-.728.687-1.244.919-.507.231-1.138.347-1.892.347a20.532 20.532 0 01-1.098-.045c-.21-.007-.41-.018-.605-.033a4.199 4.199 0 01-.437-.034V28.16zm2.408 1.254c-.164 0-.332.004-.504.011a2.98 2.98 0 00-.37.034v5.253c.03.007.08.015.146.022.075 0 .153.004.236.011.082 0 .16.004.235.012h.168c.433 0 .791-.075 1.075-.224.291-.157.519-.363.683-.616a2.4 2.4 0 00.359-.874c.067-.336.1-.68.1-1.03 0-.306-.03-.613-.09-.919a2.26 2.26 0 00-.335-.84 1.814 1.814 0 00-.65-.605c-.276-.156-.627-.235-1.053-.235zm5.516-1.254h4.648v1.366h-3.114v1.938h2.867v1.366H24.54V36h-1.534v-7.84z"/></symbol><symbol viewBox="0 0 54 54" id="folder" xmlns="http://www.w3.org/2000/svg"><path d="M2 14h50v33H2V14zM17 7H2v7h22l-7-7z"/></symbol><symbol viewBox="0 0 54 54" id="folder-open" xmlns="http://www.w3.org/2000/svg"><path d="M17 7H2v40h50V14H24l-7-7z"/><path d="M6 18h42v25H6V18z"/><path d="M0 27h54l-2 20H2L0 27z"/></symbol><symbol viewBox="0 0 24 24" id="location-pin" xmlns="http://www.w3.org/2000/svg"><path d="M1 12h21m-8-8l8 8-8 8"/></symbol><symbol viewBox="0 0 24 24" id="lock" xmlns="http://www.w3.org/2000/svg"><rect x="4.5" y="8.5" width="15" height="13" rx="1.5"/><circle cx="12" cy="15" r="1.5"/><path d="M16 8.5V6c0-2.337-1.708-4-4-4S8 3.641 8 6v2.5"/></symbol><symbol viewBox="0 0 24 24" id="long-arrow-right" xmlns="http://www.w3.org/2000/svg"><path d="M1 12h21m-8-8l8 8-8 8"/></symbol><symbol viewBox="0 0 12 8" id="menu-arrow-down" xmlns="http://www.w3.org/2000/svg"><path d="M1 1l5 5 5-5"/></symbol><symbol viewBox="0 0 24 24" id="search" xmlns="http://www.w3.org/2000/svg"><circle cx="11" cy="11" r="7.5"/><path d="M16.326 16.326l5 5"/></symbol><symbol viewBox="0 0 10 16" id="slider-next" xmlns="http://www.w3.org/2000/svg"><path d="M1 1l7 7-7 7"/></symbol><symbol viewBox="0 0 10 16" id="slider-prev" xmlns="http://www.w3.org/2000/svg"><path d="M9 1L2 8l7 7"/></symbol></svg>