<?xml version="1.0" encoding="utf-8"?>
<svg xmlns="http://www.w3.org/2000/svg" xmlns:xlink="http://www.w3.org/1999/xlink">
    <symbol viewBox="0 0 35 44" id="file-pdf" xmlns="http://www.w3.org/2000/svg">
        <path d="M20 0H3C1 0 0 1 0 3v38c0 2 1 3 3 3h29c2 0 3-1 3-3V15c0-2-1-3-2-4l-9-9c-1-1-2-2-4-2z" fill="currentcolor"/><path d="M21 3v9c0 1.5.5 2 2 2h9L21 3z" fill="#E6E6E6"/><path d="M8 28.238c.314-.06.657-.104 1.03-.134.381-.037.758-.056 1.132-.056.388 0 .776.034 1.164.1.396.06.75.187 1.064.381.314.187.568.452.762.796.202.336.302.776.302 1.321 0 .493-.086.911-.257 1.255-.172.336-.4.612-.683.829a2.75 2.75 0 01-.975.47 4.268 4.268 0 01-1.12.145h-.437l-.268-.022a1.925 1.925 0 01-.18-.022V36H8v-7.762zm2.285 1.131c-.15 0-.291.008-.426.023a2.711 2.711 0 00-.325.034v2.542c.03.007.075.015.135.022l.19.023H10.195c.202 0 .4-.019.594-.056.201-.038.38-.105.537-.202.157-.104.28-.246.37-.425.097-.18.146-.415.146-.706 0-.246-.045-.448-.135-.605a1.068 1.068 0 00-.358-.392 1.32 1.32 0 00-.493-.201 2.9 2.9 0 00-.571-.056zM15.081 28.16c.157-.023.333-.041.527-.056a15.864 15.864 0 011.22-.045c.202-.007.381-.011.538-.011.695 0 1.288.097 1.781.291.493.194.892.467 1.198.818.306.35.53.769.672 1.254.142.485.213 1.02.213 1.602 0 .53-.067 1.041-.201 1.534-.135.493-.359.93-.672 1.31-.314.381-.728.687-1.244.919-.507.231-1.138.347-1.892.347a20.532 20.532 0 01-1.098-.045c-.21-.007-.41-.018-.605-.033a4.199 4.199 0 01-.437-.034V28.16zm2.408 1.254c-.164 0-.332.004-.504.011a2.98 2.98 0 00-.37.034v5.253c.03.007.08.015.146.022.075 0 .153.004.236.011.082 0 .16.004.235.012h.168c.433 0 .791-.075 1.075-.224.291-.157.519-.363.683-.616a2.4 2.4 0 00.359-.874c.067-.336.1-.68.1-1.03 0-.306-.03-.613-.09-.919a2.26 2.26 0 00-.335-.84 1.814 1.814 0 00-.65-.605c-.276-.156-.627-.235-1.053-.235zM23.005 28.16h4.648v1.366h-3.114v1.938h2.867v1.366H24.54V36h-1.534v-7.84z" fill="#fff"/>
    </symbol>
    <symbol viewBox="0 0 35 44" id="file-doc" xmlns="http://www.w3.org/2000/svg">
        <path d="M20 0H3C1 0 0 1 0 3v38c0 2 1 3 3 3h29c2 0 3-1 3-3V15c0-2-1-3-2-4l-9-9c-1-1-2-2-4-2z" fill="currentcolor"/><path d="M7.2 28.16c.156-.023.331-.041.526-.056a16.273 16.273 0 011.22-.045c.202-.008.381-.011.538-.011.694 0 1.288.097 1.78.29a3.03 3.03 0 011.2.819c.305.35.53.769.671 1.254.142.485.213 1.02.213 1.602 0 .53-.067 1.041-.202 1.534-.134.493-.358.93-.672 1.31-.313.381-.728.687-1.243.919-.508.231-1.138.347-1.893.347a19.905 19.905 0 01-1.098-.045c-.208-.007-.41-.019-.604-.034a4.146 4.146 0 01-.437-.033V28.16zm2.407 1.254c-.164 0-.332.004-.504.011a3.02 3.02 0 00-.37.034v5.253c.03.007.079.015.146.022.075 0 .153.004.235.011.083 0 .16.004.236.012h.168c.433 0 .791-.075 1.075-.224.291-.157.519-.363.683-.617.172-.253.291-.544.358-.873.068-.336.101-.68.101-1.03 0-.307-.03-.613-.09-.919a2.257 2.257 0 00-.335-.84 1.813 1.813 0 00-.65-.605c-.276-.157-.627-.235-1.053-.235zM14.876 32.08c0-1.307.288-2.311.863-3.013.575-.71 1.396-1.064 2.464-1.064.56 0 1.049.097 1.467.291.418.194.765.47 1.042.829.276.358.481.788.616 1.288.134.5.201 1.056.201 1.669 0 1.306-.291 2.314-.873 3.024-.575.702-1.393 1.053-2.453 1.053-.568 0-1.06-.097-1.479-.292a2.763 2.763 0 01-1.041-.829 3.738 3.738 0 01-.605-1.288 6.429 6.429 0 01-.202-1.668zm1.613 0c0 .395.034.761.101 1.097.067.329.168.613.302.852.142.238.321.425.538.56.216.134.474.201.773.201.545 0 .967-.213 1.265-.638.299-.426.448-1.117.448-2.072 0-.381-.033-.736-.1-1.064a2.861 2.861 0 00-.292-.863 1.5 1.5 0 00-.526-.57c-.217-.143-.482-.214-.795-.214-.545 0-.967.22-1.266.661-.299.433-.448 1.116-.448 2.05zM28.607 35.675c-.24.172-.545.295-.919.37a5.64 5.64 0 01-1.13.111c-.471 0-.92-.07-1.345-.212a2.96 2.96 0 01-1.109-.706c-.32-.328-.578-.75-.773-1.266-.186-.522-.28-1.153-.28-1.892 0-.77.105-1.411.314-1.927.217-.522.493-.94.829-1.254a3.013 3.013 0 011.142-.683 3.885 3.885 0 011.255-.213c.448 0 .825.03 1.13.09.314.06.572.13.774.212l-.303 1.3a2.227 2.227 0 00-.616-.18 5.467 5.467 0 00-.85-.056c-.62 0-1.12.22-1.502.661-.373.44-.56 1.124-.56 2.05 0 .403.045.773.135 1.108.09.33.224.613.403.852.187.231.414.414.683.549.276.127.594.19.952.19.336 0 .62-.034.851-.1.232-.068.433-.154.605-.259l.314 1.255z" fill="#fff"/><path d="M21 3v9c0 1.5.5 2 2 2h9L21 3z" fill="#E6E6E6"/>
    </symbol>
    <symbol viewBox="0 0 54 54" id="folder" xmlns="http://www.w3.org/2000/svg">
        <path d="M2 14h50v33H2V14z" fill="#F2D291"/><path d="M17 7H2v7h22l-7-7z" fill="#CCAA7A"/>
    </symbol>
    <symbol viewBox="0 0 54 54" id="folder-open" xmlns="http://www.w3.org/2000/svg">
        <path d="M17 7H2v40h50V14H24l-7-7z" fill="#CCAA7A"/><path d="M6 18h42v25H6V18z" fill="#fff"/><path d="M0 27h54l-2 20H2L0 27z" fill="#F2D291"/>
    </symbol>

</svg>